# Blender 3.6.5
# www.blender.org
mtllib shovel.mtl
o Cube
v 0.507378 0.593222 0.819256
v 0.507378 0.546694 0.819256
v 0.507378 0.593222 0.610530
v 0.507378 0.546694 0.610530
v 0.309166 0.593222 0.610530
v 0.309166 0.546694 0.610530
v 0.265259 0.593222 0.654438
v 0.265259 0.546694 0.654438
v 0.309857 0.593222 0.819256
v 0.309857 0.546694 0.819256
v 0.265259 0.593222 0.774658
v 0.265259 0.546694 0.774658
vn -0.0000 1.0000 -0.0000
vn 1.0000 -0.0000 -0.0000
vn -0.0000 -0.0000 -1.0000
vn -0.0000 -1.0000 -0.0000
vn -0.0000 -0.0000 1.0000
vn -1.0000 -0.0000 -0.0000
vn -0.7071 -0.0000 -0.7071
vn -0.7071 -0.0000 0.7071
vt 0.678416 0.500000
vt 0.822410 0.500000
vt 0.875000 0.545337
vt 0.875000 0.750000
vt 0.625000 0.750000
vt 0.625000 0.546050
vt 0.375000 0.750000
vt 0.625000 1.000000
vt 0.375000 1.000000
vt 0.375000 0.000000
vt 0.625000 0.000000
vt 0.625000 0.204663
vt 0.375000 0.204663
vt 0.125000 0.750000
vt 0.125000 0.545337
vt 0.177590 0.500000
vt 0.321584 0.500000
vt 0.375000 0.546050
vt 0.375000 0.446584
vt 0.375000 0.302590
vt 0.625000 0.302590
vt 0.625000 0.446584
vt 0.375000 0.651889
vt 0.625000 0.651889
vt 0.625000 0.587773
vt 0.375000 0.587773
vt 0.625000 0.597103
vt 0.375000 0.597103
vt 0.375000 0.662226
vt 0.625000 0.662226
s 0
usemtl Material
f 11/1/1 9/6/1 1/5/1 3/4/1 5/3/1 7/2/1
f 2/7/2 4/9/2 3/8/2 1/5/2
f 4/10/3 6/13/3 5/12/3 3/11/3
f 2/7/4 10/18/4 12/17/4 8/16/4 6/15/4 4/14/4
f 1/5/5 9/6/5 10/18/5 2/7/5
f 12/19/6 11/22/6 7/21/6 8/20/6
f 6/23/7 8/26/7 7/25/7 5/24/7
f 9/27/8 11/30/8 12/29/8 10/28/8
o Cylinder
v 1.048353 0.569958 0.640554
v 1.048353 0.569958 0.789231
v 1.047906 0.565420 0.640554
v 1.047906 0.565420 0.789231
v 1.046582 0.561056 0.640554
v 1.046582 0.561056 0.789231
v 1.044433 0.557034 0.640554
v 1.044433 0.557034 0.789231
v 1.041539 0.553508 0.640554
v 1.041539 0.553508 0.789231
v 1.038014 0.550615 0.640554
v 1.038014 0.550615 0.789231
v 1.033992 0.548465 0.640554
v 1.033992 0.548465 0.789231
v 1.029628 0.547141 0.640554
v 1.029628 0.547141 0.789231
v 1.025089 0.546694 0.640554
v 1.025089 0.546694 0.789231
v 1.020551 0.547141 0.640554
v 1.020551 0.547141 0.789231
v 1.016186 0.548465 0.640554
v 1.016187 0.548465 0.789231
v 1.012164 0.550615 0.640554
v 1.012164 0.550615 0.789231
v 1.008639 0.553508 0.640554
v 1.008639 0.553508 0.789231
v 1.005746 0.557034 0.640554
v 1.005746 0.557034 0.789231
v 1.003596 0.561056 0.640554
v 1.003596 0.561056 0.789231
v 1.002272 0.565420 0.640554
v 1.002272 0.565420 0.789231
v 1.001825 0.569958 0.640554
v 1.001825 0.569958 0.789231
v 1.002272 0.574497 0.640554
v 1.002272 0.574497 0.789231
v 1.003596 0.578861 0.640554
v 1.003596 0.578861 0.789231
v 1.005746 0.582883 0.640554
v 1.005746 0.582883 0.789231
v 1.008639 0.586408 0.640554
v 1.008639 0.586408 0.789231
v 1.012164 0.589302 0.640554
v 1.012164 0.589302 0.789231
v 1.016186 0.591451 0.640554
v 1.016187 0.591451 0.789231
v 1.020551 0.592775 0.640554
v 1.020551 0.592775 0.789231
v 1.025089 0.593222 0.640554
v 1.025089 0.593222 0.789231
v 1.029628 0.592775 0.640554
v 1.029628 0.592775 0.789231
v 1.033992 0.591451 0.640554
v 1.033992 0.591451 0.789231
v 1.038014 0.589302 0.640554
v 1.038014 0.589302 0.789231
v 1.041539 0.586408 0.640554
v 1.041539 0.586408 0.789231
v 1.044433 0.582883 0.640554
v 1.044433 0.582883 0.789231
v 1.046582 0.578861 0.640554
v 1.046582 0.578861 0.789231
v 1.047906 0.574497 0.640554
v 1.047906 0.574497 0.789231
vn 0.9952 -0.0980 -0.0000
vn 0.9569 -0.2903 -0.0000
vn 0.8819 -0.4714 -0.0000
vn 0.7730 -0.6344 -0.0000
vn 0.6344 -0.7730 -0.0000
vn 0.4714 -0.8819 -0.0000
vn 0.2903 -0.9569 -0.0000
vn 0.0980 -0.9952 -0.0000
vn -0.0980 -0.9952 -0.0000
vn -0.2903 -0.9569 -0.0000
vn -0.4714 -0.8819 -0.0000
vn -0.6344 -0.7730 -0.0000
vn -0.7730 -0.6344 -0.0000
vn -0.8819 -0.4714 -0.0000
vn -0.9569 -0.2903 -0.0000
vn -0.9952 -0.0980 -0.0000
vn -0.9952 0.0980 -0.0000
vn -0.9569 0.2903 -0.0000
vn -0.8819 0.4714 -0.0000
vn -0.7730 0.6344 -0.0000
vn -0.6344 0.7730 -0.0000
vn -0.4714 0.8819 -0.0000
vn -0.2903 0.9569 -0.0000
vn -0.0980 0.9952 -0.0000
vn 0.0980 0.9952 -0.0000
vn 0.2903 0.9569 -0.0000
vn 0.4714 0.8819 -0.0000
vn 0.6344 0.7730 -0.0000
vn 0.7730 0.6344 -0.0000
vn 0.8819 0.4714 -0.0000
vn -0.0000 -0.0000 1.0000
vn 0.9569 0.2903 -0.0000
vn 0.9952 0.0980 -0.0000
vn -0.0000 -0.0000 -1.0000
vt 1.000000 0.500000
vt 1.000000 1.000000
vt 0.968750 1.000000
vt 0.968750 0.500000
vt 0.937500 1.000000
vt 0.937500 0.500000
vt 0.906250 1.000000
vt 0.906250 0.500000
vt 0.875000 1.000000
vt 0.875000 0.500000
vt 0.843750 1.000000
vt 0.843750 0.500000
vt 0.812500 1.000000
vt 0.812500 0.500000
vt 0.781250 1.000000
vt 0.781250 0.500000
vt 0.750000 1.000000
vt 0.750000 0.500000
vt 0.718750 1.000000
vt 0.718750 0.500000
vt 0.687500 1.000000
vt 0.687500 0.500000
vt 0.656250 1.000000
vt 0.656250 0.500000
vt 0.625000 1.000000
vt 0.625000 0.500000
vt 0.593750 1.000000
vt 0.593750 0.500000
vt 0.562500 1.000000
vt 0.562500 0.500000
vt 0.531250 1.000000
vt 0.531250 0.500000
vt 0.500000 1.000000
vt 0.500000 0.500000
vt 0.468750 1.000000
vt 0.468750 0.500000
vt 0.437500 1.000000
vt 0.437500 0.500000
vt 0.406250 1.000000
vt 0.406250 0.500000
vt 0.375000 1.000000
vt 0.375000 0.500000
vt 0.343750 1.000000
vt 0.343750 0.500000
vt 0.312500 1.000000
vt 0.312500 0.500000
vt 0.281250 1.000000
vt 0.281250 0.500000
vt 0.250000 1.000000
vt 0.250000 0.500000
vt 0.218750 1.000000
vt 0.218750 0.500000
vt 0.187500 1.000000
vt 0.187500 0.500000
vt 0.156250 1.000000
vt 0.156250 0.500000
vt 0.125000 1.000000
vt 0.125000 0.500000
vt 0.093750 1.000000
vt 0.093750 0.500000
vt 0.062500 1.000000
vt 0.062500 0.500000
vt 0.296822 0.485388
vt 0.250000 0.490000
vt 0.203178 0.485388
vt 0.158156 0.471731
vt 0.116663 0.449553
vt 0.080294 0.419706
vt 0.050447 0.383337
vt 0.028269 0.341844
vt 0.014612 0.296822
vt 0.010000 0.250000
vt 0.014612 0.203178
vt 0.028269 0.158156
vt 0.050447 0.116663
vt 0.080294 0.080294
vt 0.116663 0.050447
vt 0.158156 0.028269
vt 0.203178 0.014612
vt 0.250000 0.010000
vt 0.296822 0.014612
vt 0.341844 0.028269
vt 0.383337 0.050447
vt 0.419706 0.080294
vt 0.449553 0.116663
vt 0.471731 0.158156
vt 0.485388 0.203178
vt 0.490000 0.250000
vt 0.485388 0.296822
vt 0.471731 0.341844
vt 0.449553 0.383337
vt 0.419706 0.419706
vt 0.383337 0.449553
vt 0.341844 0.471731
vt 0.031250 1.000000
vt 0.031250 0.500000
vt 0.000000 1.000000
vt 0.000000 0.500000
vt 0.750000 0.490000
vt 0.796822 0.485388
vt 0.841844 0.471731
vt 0.883337 0.449553
vt 0.919706 0.419706
vt 0.949553 0.383337
vt 0.971731 0.341844
vt 0.985388 0.296822
vt 0.990000 0.250000
vt 0.985388 0.203178
vt 0.971731 0.158156
vt 0.949553 0.116663
vt 0.919706 0.080294
vt 0.883337 0.050447
vt 0.841844 0.028269
vt 0.796822 0.014612
vt 0.750000 0.010000
vt 0.703178 0.014612
vt 0.658156 0.028269
vt 0.616663 0.050447
vt 0.580294 0.080294
vt 0.550447 0.116663
vt 0.528269 0.158156
vt 0.514612 0.203178
vt 0.510000 0.250000
vt 0.514612 0.296822
vt 0.528269 0.341844
vt 0.550447 0.383337
vt 0.580294 0.419706
vt 0.616663 0.449553
vt 0.658156 0.471731
vt 0.703178 0.485388
s 0
usemtl Material.003
f 13/31/9 14/32/9 16/33/9 15/34/9
f 15/34/10 16/33/10 18/35/10 17/36/10
f 17/36/11 18/35/11 20/37/11 19/38/11
f 19/38/12 20/37/12 22/39/12 21/40/12
f 21/40/13 22/39/13 24/41/13 23/42/13
f 23/42/14 24/41/14 26/43/14 25/44/14
f 25/44/15 26/43/15 28/45/15 27/46/15
f 27/46/16 28/45/16 30/47/16 29/48/16
f 29/48/17 30/47/17 32/49/17 31/50/17
f 31/50/18 32/49/18 34/51/18 33/52/18
f 33/52/19 34/51/19 36/53/19 35/54/19
f 35/54/20 36/53/20 38/55/20 37/56/20
f 37/56/21 38/55/21 40/57/21 39/58/21
f 39/58/22 40/57/22 42/59/22 41/60/22
f 41/60/23 42/59/23 44/61/23 43/62/23
f 43/62/24 44/61/24 46/63/24 45/64/24
f 45/64/25 46/63/25 48/65/25 47/66/25
f 47/66/26 48/65/26 50/67/26 49/68/26
f 49/68/27 50/67/27 52/69/27 51/70/27
f 51/70/28 52/69/28 54/71/28 53/72/28
f 53/72/29 54/71/29 56/73/29 55/74/29
f 55/74/30 56/73/30 58/75/30 57/76/30
f 57/76/31 58/75/31 60/77/31 59/78/31
f 59/78/32 60/77/32 62/79/32 61/80/32
f 61/80/33 62/79/33 64/81/33 63/82/33
f 63/82/34 64/81/34 66/83/34 65/84/34
f 65/84/35 66/83/35 68/85/35 67/86/35
f 67/86/36 68/85/36 70/87/36 69/88/36
f 69/88/37 70/87/37 72/89/37 71/90/37
f 71/90/38 72/89/38 74/91/38 73/92/38
f 16/93/39 14/94/39 76/95/39 74/96/39 72/97/39 70/98/39 68/99/39 66/100/39 64/101/39 62/102/39 60/103/39 58/104/39 56/105/39 54/106/39 52/107/39 50/108/39 48/109/39 46/110/39 44/111/39 42/112/39 40/113/39 38/114/39 36/115/39 34/116/39 32/117/39 30/118/39 28/119/39 26/120/39 24/121/39 22/122/39 20/123/39 18/124/39
f 73/92/40 74/91/40 76/125/40 75/126/40
f 75/126/41 76/125/41 14/127/41 13/128/41
f 13/129/42 15/130/42 17/131/42 19/132/42 21/133/42 23/134/42 25/135/42 27/136/42 29/137/42 31/138/42 33/139/42 35/140/42 37/141/42 39/142/42 41/143/42 43/144/42 45/145/42 47/146/42 49/147/42 51/148/42 53/149/42 55/150/42 57/151/42 59/152/42 61/153/42 63/154/42 65/155/42 67/156/42 69/157/42 71/158/42 73/159/42 75/160/42
o Cylinder.001
v 0.470248 0.569958 0.692658
v 1.016546 0.569958 0.692657
v 0.470248 0.565620 0.693085
v 1.016546 0.565621 0.693085
v 0.470248 0.561449 0.694350
v 1.016546 0.561449 0.694350
v 0.470248 0.557605 0.696405
v 1.016546 0.557605 0.696405
v 0.470248 0.554236 0.699170
v 1.016546 0.554236 0.699170
v 0.470248 0.551470 0.702540
v 1.016546 0.551471 0.702539
v 0.470248 0.549416 0.706384
v 1.016546 0.549416 0.706384
v 0.470248 0.548150 0.710555
v 1.016546 0.548150 0.710555
v 0.470248 0.547723 0.714893
v 1.016546 0.547723 0.714893
v 0.470248 0.548150 0.719231
v 1.016546 0.548150 0.719231
v 0.470248 0.549416 0.723402
v 1.016546 0.549416 0.723402
v 0.470248 0.551470 0.727246
v 1.016546 0.551471 0.727246
v 0.470248 0.554236 0.730615
v 1.016546 0.554236 0.730615
v 0.470248 0.557605 0.733381
v 1.016546 0.557605 0.733381
v 0.470248 0.561449 0.735435
v 1.016546 0.561449 0.735435
v 0.470248 0.565620 0.736701
v 1.016546 0.565621 0.736701
v 0.470248 0.569958 0.737128
v 1.016546 0.569958 0.737128
v 0.470248 0.574296 0.736701
v 1.016546 0.574296 0.736701
v 0.470248 0.578467 0.735435
v 1.016546 0.578467 0.735435
v 0.470248 0.582312 0.733381
v 1.016546 0.582312 0.733381
v 0.470248 0.585681 0.730615
v 1.016546 0.585681 0.730615
v 0.470248 0.588446 0.727246
v 1.016546 0.588446 0.727246
v 0.470248 0.590501 0.723402
v 1.016546 0.590501 0.723402
v 0.470248 0.591766 0.719231
v 1.016546 0.591766 0.719231
v 0.470248 0.592194 0.714893
v 1.016546 0.592194 0.714893
v 0.470248 0.591766 0.710555
v 1.016546 0.591766 0.710555
v 0.470248 0.590501 0.706384
v 1.016546 0.590501 0.706384
v 0.470248 0.588446 0.702540
v 1.016546 0.588446 0.702539
v 0.470248 0.585681 0.699170
v 1.016546 0.585681 0.699170
v 0.470248 0.582312 0.696405
v 1.016546 0.582312 0.696405
v 0.470248 0.578467 0.694350
v 1.016546 0.578467 0.694350
v 0.470248 0.574296 0.693085
v 1.016546 0.574296 0.693085
vn -0.0000 -0.0980 -0.9952
vn -0.0000 -0.2903 -0.9569
vn -0.0000 -0.4714 -0.8819
vn -0.0000 -0.6344 -0.7730
vn -0.0000 -0.7730 -0.6344
vn -0.0000 -0.8819 -0.4714
vn -0.0000 -0.9569 -0.2903
vn -0.0000 -0.9952 -0.0980
vn -0.0000 -0.9952 0.0980
vn -0.0000 -0.9569 0.2903
vn -0.0000 -0.8819 0.4714
vn -0.0000 -0.7730 0.6344
vn -0.0000 -0.6344 0.7730
vn -0.0000 -0.4714 0.8819
vn -0.0000 -0.2903 0.9569
vn -0.0000 -0.0980 0.9952
vn -0.0000 0.0980 0.9952
vn -0.0000 0.2903 0.9569
vn -0.0000 0.4714 0.8819
vn -0.0000 0.6344 0.7730
vn -0.0000 0.7730 0.6344
vn -0.0000 0.8819 0.4714
vn -0.0000 0.9569 0.2903
vn -0.0000 0.9952 0.0980
vn -0.0000 0.9952 -0.0980
vn -0.0000 0.9569 -0.2903
vn -0.0000 0.8819 -0.4714
vn -0.0000 0.7730 -0.6344
vn -0.0000 0.6344 -0.7730
vn -0.0000 0.4714 -0.8819
vn 1.0000 -0.0000 -0.0000
vn -0.0000 0.2903 -0.9569
vn -0.0000 0.0980 -0.9952
vn -1.0000 -0.0000 -0.0000
vt 1.000000 0.500000
vt 1.000000 1.000000
vt 0.968750 1.000000
vt 0.968750 0.500000
vt 0.937500 1.000000
vt 0.937500 0.500000
vt 0.906250 1.000000
vt 0.906250 0.500000
vt 0.875000 1.000000
vt 0.875000 0.500000
vt 0.843750 1.000000
vt 0.843750 0.500000
vt 0.812500 1.000000
vt 0.812500 0.500000
vt 0.781250 1.000000
vt 0.781250 0.500000
vt 0.750000 1.000000
vt 0.750000 0.500000
vt 0.718750 1.000000
vt 0.718750 0.500000
vt 0.687500 1.000000
vt 0.687500 0.500000
vt 0.656250 1.000000
vt 0.656250 0.500000
vt 0.625000 1.000000
vt 0.625000 0.500000
vt 0.593750 1.000000
vt 0.593750 0.500000
vt 0.562500 1.000000
vt 0.562500 0.500000
vt 0.531250 1.000000
vt 0.531250 0.500000
vt 0.500000 1.000000
vt 0.500000 0.500000
vt 0.468750 1.000000
vt 0.468750 0.500000
vt 0.437500 1.000000
vt 0.437500 0.500000
vt 0.406250 1.000000
vt 0.406250 0.500000
vt 0.375000 1.000000
vt 0.375000 0.500000
vt 0.343750 1.000000
vt 0.343750 0.500000
vt 0.312500 1.000000
vt 0.312500 0.500000
vt 0.281250 1.000000
vt 0.281250 0.500000
vt 0.250000 1.000000
vt 0.250000 0.500000
vt 0.218750 1.000000
vt 0.218750 0.500000
vt 0.187500 1.000000
vt 0.187500 0.500000
vt 0.156250 1.000000
vt 0.156250 0.500000
vt 0.125000 1.000000
vt 0.125000 0.500000
vt 0.093750 1.000000
vt 0.093750 0.500000
vt 0.062500 1.000000
vt 0.062500 0.500000
vt 0.296822 0.485388
vt 0.250000 0.490000
vt 0.203178 0.485388
vt 0.158156 0.471731
vt 0.116663 0.449553
vt 0.080294 0.419706
vt 0.050447 0.383337
vt 0.028269 0.341844
vt 0.014612 0.296822
vt 0.010000 0.250000
vt 0.014612 0.203178
vt 0.028269 0.158156
vt 0.050447 0.116663
vt 0.080294 0.080294
vt 0.116663 0.050447
vt 0.158156 0.028269
vt 0.203178 0.014612
vt 0.250000 0.010000
vt 0.296822 0.014612
vt 0.341844 0.028269
vt 0.383337 0.050447
vt 0.419706 0.080294
vt 0.449553 0.116663
vt 0.471731 0.158156
vt 0.485388 0.203178
vt 0.490000 0.250000
vt 0.485388 0.296822
vt 0.471731 0.341844
vt 0.449553 0.383337
vt 0.419706 0.419706
vt 0.383337 0.449553
vt 0.341844 0.471731
vt 0.031250 1.000000
vt 0.031250 0.500000
vt 0.000000 1.000000
vt 0.000000 0.500000
vt 0.750000 0.490000
vt 0.796822 0.485388
vt 0.841844 0.471731
vt 0.883337 0.449553
vt 0.919706 0.419706
vt 0.949553 0.383337
vt 0.971731 0.341844
vt 0.985388 0.296822
vt 0.990000 0.250000
vt 0.985388 0.203178
vt 0.971731 0.158156
vt 0.949553 0.116663
vt 0.919706 0.080294
vt 0.883337 0.050447
vt 0.841844 0.028269
vt 0.796822 0.014612
vt 0.750000 0.010000
vt 0.703178 0.014612
vt 0.658156 0.028269
vt 0.616663 0.050447
vt 0.580294 0.080294
vt 0.550447 0.116663
vt 0.528269 0.158156
vt 0.514612 0.203178
vt 0.510000 0.250000
vt 0.514612 0.296822
vt 0.528269 0.341844
vt 0.550447 0.383337
vt 0.580294 0.419706
vt 0.616663 0.449553
vt 0.658156 0.471731
vt 0.703178 0.485388
s 0
usemtl Material.003
f 77/161/43 78/162/43 80/163/43 79/164/43
f 79/164/44 80/163/44 82/165/44 81/166/44
f 81/166/45 82/165/45 84/167/45 83/168/45
f 83/168/46 84/167/46 86/169/46 85/170/46
f 85/170/47 86/169/47 88/171/47 87/172/47
f 87/172/48 88/171/48 90/173/48 89/174/48
f 89/174/49 90/173/49 92/175/49 91/176/49
f 91/176/50 92/175/50 94/177/50 93/178/50
f 93/178/51 94/177/51 96/179/51 95/180/51
f 95/180/52 96/179/52 98/181/52 97/182/52
f 97/182/53 98/181/53 100/183/53 99/184/53
f 99/184/54 100/183/54 102/185/54 101/186/54
f 101/186/55 102/185/55 104/187/55 103/188/55
f 103/188/56 104/187/56 106/189/56 105/190/56
f 105/190/57 106/189/57 108/191/57 107/192/57
f 107/192/58 108/191/58 110/193/58 109/194/58
f 109/194/59 110/193/59 112/195/59 111/196/59
f 111/196/60 112/195/60 114/197/60 113/198/60
f 113/198/61 114/197/61 116/199/61 115/200/61
f 115/200/62 116/199/62 118/201/62 117/202/62
f 117/202/63 118/201/63 120/203/63 119/204/63
f 119/204/64 120/203/64 122/205/64 121/206/64
f 121/206/65 122/205/65 124/207/65 123/208/65
f 123/208/66 124/207/66 126/209/66 125/210/66
f 125/210/67 126/209/67 128/211/67 127/212/67
f 127/212/68 128/211/68 130/213/68 129/214/68
f 129/214/69 130/213/69 132/215/69 131/216/69
f 131/216/70 132/215/70 134/217/70 133/218/70
f 133/218/71 134/217/71 136/219/71 135/220/71
f 135/220/72 136/219/72 138/221/72 137/222/72
f 80/223/73 78/224/73 140/225/73 138/226/73 136/227/73 134/228/73 132/229/73 130/230/73 128/231/73 126/232/73 124/233/73 122/234/73 120/235/73 118/236/73 116/237/73 114/238/73 112/239/73 110/240/73 108/241/73 106/242/73 104/243/73 102/244/73 100/245/73 98/246/73 96/247/73 94/248/73 92/249/73 90/250/73 88/251/73 86/252/73 84/253/73 82/254/73
f 137/222/74 138/221/74 140/255/74 139/256/74
f 139/256/75 140/255/75 78/257/75 77/258/75
f 77/259/76 79/260/76 81/261/76 83/262/76 85/263/76 87/264/76 89/265/76 91/266/76 93/267/76 95/268/76 97/269/76 99/270/76 101/271/76 103/272/76 105/273/76 107/274/76 109/275/76 111/276/76 113/277/76 115/278/76 117/279/76 119/280/76 121/281/76 123/282/76 125/283/76 127/284/76 129/285/76 131/286/76 133/287/76 135/288/76 137/289/76 139/290/76
